<?xml version="1.0" encoding="UTF-8"?>
<svg width="168px" height="129px" viewBox="0 0 168 129" version="1.1" xmlns="http://www.w3.org/2000/svg" xmlns:xlink="http://www.w3.org/1999/xlink">
    <!-- Generator: Sketch 52.5 (67469) - http://www.bohemiancoding.com/sketch -->
    <title>home - FontAwesome</title>
    <desc>Created with Sketch.</desc>
    <g id="Page-1" stroke="none" stroke-width="1" fill="none" fill-rule="evenodd">
        <path d="M144,73.75 L144,122.5 C144,126.054688 141.00434,129 137.388889,129 L97.7222222,129 L97.7222222,90 L71.2777778,90 L71.2777778,129 L31.6111111,129 C27.9956597,129 25,126.054688 25,122.5 L25,73.75 C25,73.546875 25.1032986,73.34375 25.1032986,73.140625 L84.5,25 L143.896701,73.140625 C144,73.34375 144,73.546875 144,73.75 Z M167.255996,66.5422051 L160.79558,73.8889014 C160.274579,74.4845794 159.440977,74.8816982 158.607375,74.9809778 C158.503175,74.9809778 158.398975,74.9809778 158.294775,74.9809778 C157.461173,74.9809778 156.731771,74.7824185 156.106569,74.2860201 L84,17.0016451 L11.8934306,74.2860201 C11.1640289,74.7824185 10.3304269,75.0802575 9.39262471,74.9809778 C8.55902275,74.8816982 7.72542079,74.4845794 7.20441957,73.8889014 L0.744004388,66.5422051 C-0.402198305,65.2515693 -0.193797816,63.166696 1.16080537,62.0746195 L76.0807814,2.60609158 C80.4571917,-0.868697194 87.5428083,-0.868697194 91.9192186,2.60609158 L117.344078,22.8591462 L117.344078,3.4996087 C117.344078,1.71257447 118.802882,0.322658958 120.678486,0.322658958 L140.684933,0.322658958 C142.560538,0.322658958 144.019341,1.71257447 144.019341,3.4996087 L144.019341,44.0057179 L166.839195,62.0746195 C168.193798,63.166696 168.402198,65.2515693 167.255996,66.5422051 Z" id="home---FontAwesome" fill="#4A90E2"></path>
    </g>
</svg>